<svg width="943" height="787" viewBox="0 0 943 787" fill="none" xmlns="http://www.w3.org/2000/svg">
<path d="M272 305.109L180 276.609C251 4.60864 762.5 -177.891 942.5 276.609C648.5 -57.3914 362 113.109 272 305.109Z" fill="#D3D3D3"/>
<path d="M181 274.5L280.5 293.5C334 229.5 391.5 220.5 500.5 207C506.5 269.5 419.667 321 361 345.5C386.5 391.5 388 484.167 393.5 504L202.5 561.5C186.5 554.7 196 527 188.5 532C181 535.5 163 572.333 156.5 590.5C106 714.5 68 761.5 28 787C40.8 759.4 51.3333 727.167 55 714.5C37.4 728.9 23.6667 731.833 19 731.5C57.4 683.5 77.3333 647.833 82.5 636C67.3 646.4 51.5 645 45.5 643C81.1 624.2 81.3333 573.833 77 551C56.2 558.2 35.6667 557 28 555.5C17.6 544.7 13 529.667 12 523.5C-0.8 515.5 -0.666667 507.167 1 504C9.8 494 22.6667 455.833 28 438L68 391.5C95 350 101 316.5 116.5 309.5C154.5 277.1 175.5 273.667 181 274.5Z" fill="#D3D3D3"/>
</svg>
